<svg version="1.0" xmlns="http://www.w3.org/2000/svg"
 width="100px" height="100px" viewBox="0 0 900.000000 900.000000"
 preserveAspectRatio="xMidYMid meet">
    <g transform="translate(0.000000,900.000000) scale(0.100000,-0.100000)" fill="#000000" stroke="none">
        <g transform="rotate(0 4500 4500)">
        <animateTransform
            attributeType="XML"
            attributeName="transform"
            type="rotate"
            from="360 4500 4500"
            to="0 4500 4500"
            dur="18s"
            repeatCount="indefinite"
        />
            <path d="M3870 8948 c-146 -13 -238 -30 -330 -63 -19 -7 -51 -18 -70 -25 -19
            -6 -46 -14 -60 -17 -24 -5 -68 -22 -122 -50 -14 -7 -32 -13 -40 -13 -19 0
            -122 -53 -163 -84 -33 -26 -65 -95 -65 -143 0 -28 -27 -73 -44 -73 -24 0 -141
            -70 -166 -100 -12 -14 -98 -77 -127 -93 -36 -20 -85 -22 -112 -5 -15 9 -25 9
            -46 0 -14 -7 -33 -12 -42 -12 -29 0 -163 -71 -255 -135 -78 -55 -198 -173
            -198 -195 0 -23 -483 -510 -506 -510 -11 0 -28 -7 -38 -15 -11 -8 -26 -15 -34
            -15 -8 0 -20 -8 -27 -17 -9 -12 -25 -17 -53 -16 -25 1 -45 -4 -52 -13 -7 -8
            -16 -14 -20 -14 -29 0 -201 -174 -247 -250 -77 -127 -96 -198 -60 -237 28 -32
            32 -72 8 -103 -11 -16 -21 -36 -21 -43 0 -8 -7 -20 -15 -27 -8 -7 -15 -17 -15
            -22 0 -9 -7 -20 -120 -176 -33 -45 -60 -86 -60 -91 0 -5 -3 -11 -7 -13 -16 -7
            -110 -153 -135 -208 -29 -68 -44 -93 -58 -97 -41 -13 -61 -29 -79 -62 -57
            -109 -81 -165 -81 -190 0 -10 -7 -32 -15 -47 -8 -16 -15 -38 -15 -49 0 -11 -7
            -52 -15 -90 -8 -39 -15 -93 -15 -122 0 -51 -22 -110 -47 -126 -7 -4 -13 -13
            -13 -19 0 -6 -20 -44 -45 -85 -25 -40 -45 -78 -45 -83 0 -26 -43 -100 -79
            -137 -43 -44 -52 -76 -25 -91 12 -6 14 -16 9 -32 l-7 -23 -18 23 c-24 32 -34
            11 -20 -42 11 -39 10 -43 -12 -59 -23 -18 -23 -20 -25 -241 -1 -123 3 -252 8
            -288 5 -36 12 -92 15 -125 4 -56 17 -126 44 -250 6 -27 15 -68 19 -90 4 -22
            13 -50 19 -62 7 -12 12 -35 12 -51 0 -16 7 -35 15 -42 8 -7 15 -23 15 -37 0
            -17 28 -52 103 -126 102 -100 118 -124 177 -262 5 -11 18 -41 29 -67 12 -26
            21 -56 21 -67 0 -11 4 -22 9 -26 5 -3 13 -20 17 -37 3 -18 10 -39 15 -48 5 -8
            18 -37 30 -65 49 -118 111 -244 150 -310 16 -27 35 -61 42 -75 6 -14 17 -31
            24 -38 7 -7 13 -17 13 -21 0 -7 73 -124 97 -157 4 -5 13 -17 18 -26 31 -51
            128 -189 163 -233 75 -95 107 -144 114 -176 4 -22 12 -58 18 -81 5 -24 9 -90
            10 -148 0 -117 6 -136 76 -231 59 -82 151 -175 238 -242 l79 -61 81 -3 c45 -3
            90 -8 101 -13 76 -31 193 -91 268 -137 68 -43 87 -59 87 -77 0 -13 11 -43 25
            -67 14 -24 28 -51 31 -59 43 -101 87 -169 179 -278 35 -41 128 -107 200 -141
            39 -19 82 -40 97 -47 14 -8 35 -14 45 -14 10 0 24 -5 30 -11 6 -6 26 -14 44
            -19 36 -9 85 -25 134 -45 45 -19 96 -36 134 -45 18 -5 38 -13 44 -19 6 -6 21
            -11 33 -11 12 0 35 -6 51 -14 15 -8 55 -22 88 -31 33 -10 75 -24 93 -31 18 -8
            43 -14 55 -14 12 -1 33 -7 47 -15 14 -8 42 -14 62 -15 20 0 49 -5 65 -11 15
            -6 89 -12 163 -13 134 -3 200 8 240 39 8 6 35 20 60 30 25 10 52 25 61 32 21
            17 97 16 129 -2 35 -20 198 -20 236 0 16 8 45 15 64 15 50 1 136 33 168 63 36
            33 68 40 242 53 79 5 101 4 127 -10 18 -9 41 -16 52 -16 11 0 34 -8 53 -17 18
            -9 45 -22 60 -30 14 -7 39 -13 56 -13 16 0 35 -7 43 -16 35 -42 147 -58 229
            -33 19 5 58 14 85 19 54 8 103 24 148 46 16 8 34 14 41 14 13 0 71 28 102 50
            12 9 29 32 37 52 25 60 66 104 167 181 92 70 156 107 185 107 7 0 26 6 42 14
            15 8 46 21 68 29 53 20 191 75 233 93 17 8 47 20 65 28 88 39 176 84 211 108
            21 16 45 28 52 28 7 0 14 4 16 8 3 9 133 88 233 142 33 18 79 46 103 61 24 16
            45 29 47 29 11 0 113 65 140 90 49 42 83 56 105 42 27 -16 65 -15 80 3 7 8 19
            15 26 15 8 0 36 14 62 30 35 21 62 30 93 30 24 1 62 7 84 15 22 8 54 15 71 15
            17 0 37 7 44 15 7 8 17 15 23 15 18 0 189 203 210 250 4 8 16 29 27 45 11 17
            24 39 30 50 9 19 14 27 40 73 6 9 13 24 16 32 3 8 12 27 20 42 8 14 14 35 14
            46 0 11 7 25 15 32 8 7 17 28 21 49 8 46 22 96 41 140 12 30 12 35 -3 53 -17
            18 -17 20 -1 47 21 35 22 70 3 108 -31 60 -39 135 -26 229 6 49 18 109 26 133
            8 25 14 56 14 71 0 14 7 35 15 46 8 10 15 26 15 34 0 32 37 87 98 148 34 34
            67 62 73 62 16 0 58 50 78 94 31 70 43 109 51 171 5 33 13 94 19 135 12 84 14
            251 5 299 -4 17 -17 42 -29 55 -46 50 -73 163 -53 228 7 24 13 48 13 53 3 27
            18 56 34 65 10 5 24 29 30 54 14 58 15 572 1 649 -6 31 -15 89 -20 129 -16
            125 -32 166 -78 205 -42 34 -42 35 -42 103 0 37 -6 85 -13 106 -8 22 -14 65
            -15 98 -1 35 -8 69 -17 83 -15 23 -15 26 2 45 40 44 10 219 -59 338 -4 8 -10
            20 -12 25 -2 6 -7 17 -10 25 -3 8 -15 29 -26 45 -11 17 -23 37 -27 45 -10 23
            -62 90 -108 140 -57 61 -70 129 -70 365 0 141 -3 185 -15 202 -12 19 -12 30
            -2 68 20 76 16 103 -30 185 -4 8 -11 22 -14 30 -12 31 -15 36 -34 65 -11 17
            -23 37 -27 45 -43 94 -405 484 -553 594 -36 27 -69 54 -75 61 -12 14 -144 105
            -152 105 -4 0 -14 7 -24 16 -23 21 -169 25 -193 5 -17 -14 -20 -14 -196 9 -36
            4 -83 15 -105 23 -44 17 -83 67 -84 107 -1 30 -30 109 -48 131 -7 8 -13 29
            -13 45 0 24 -11 37 -54 72 -30 23 -61 42 -69 42 -8 0 -20 7 -27 15 -7 8 -20
            15 -29 15 -9 0 -25 7 -35 15 -11 8 -28 15 -39 15 -10 0 -31 6 -45 14 -32 16
            -98 34 -169 46 -28 4 -56 11 -61 14 -5 3 -49 10 -98 16 -75 8 -92 7 -118 -7
            -30 -15 -82 -28 -161 -39 -27 -4 -59 1 -100 16 -55 19 -110 36 -190 60 -16 4
            -43 13 -60 18 -16 6 -57 18 -90 27 -33 9 -80 23 -105 31 -25 8 -55 14 -68 14
            -13 0 -33 5 -44 11 -11 6 -44 15 -72 19 -28 5 -69 13 -91 18 -84 21 -196 35
            -379 46 -203 13 -220 11 -336 -34 -98 -38 -120 -41 -169 -19 -24 10 -51 19
            -61 19 -10 0 -23 7 -30 15 -7 8 -18 15 -26 15 -14 0 -99 54 -125 79 -25 24
            -64 57 -74 62 -6 2 -48 1 -95 -3z m107 -114 c3 -9 2 -19 -3 -23 -9 -6 -37 -62
            -68 -134 -9 -21 -16 -62 -16 -91 0 -49 3 -57 41 -95 36 -35 48 -41 88 -43 89
            -3 166 4 200 18 18 8 45 14 60 14 14 1 37 7 51 15 14 8 32 14 41 15 18 0 49
            24 137 105 48 44 59 50 96 49 22 0 55 -8 73 -17 18 -10 45 -17 61 -17 16 0 49
            -7 72 -15 23 -8 61 -15 85 -15 23 0 86 -7 141 -15 54 -8 126 -15 159 -15 84 0
            367 -29 445 -46 36 -8 78 -14 93 -14 16 0 37 -5 48 -10 10 -6 38 -15 61 -20
            24 -5 77 -18 118 -30 56 -16 83 -19 105 -13 17 5 43 6 60 1 17 -4 45 -3 65 2
            19 6 53 10 75 10 22 0 49 7 59 15 25 19 55 19 80 0 11 -8 28 -15 38 -15 18 0
            49 -13 164 -67 68 -33 72 -37 105 -102 19 -38 46 -77 61 -87 15 -10 37 -36 49
            -59 12 -22 26 -42 29 -45 19 -14 100 -141 100 -158 0 -10 7 -27 15 -38 8 -10
            15 -29 15 -40 0 -12 7 -27 15 -34 8 -7 15 -21 15 -31 0 -10 4 -20 9 -23 5 -3
            21 -29 36 -58 15 -29 42 -73 59 -97 17 -24 42 -62 55 -85 22 -38 87 -126 136
            -185 71 -86 159 -183 170 -187 7 -3 16 -20 19 -39 5 -26 18 -41 61 -69 29 -20
            58 -36 64 -36 7 0 16 -11 21 -25 5 -14 21 -30 35 -35 14 -5 25 -14 25 -19 0
            -5 9 -12 20 -16 10 -3 45 -32 77 -64 67 -67 93 -83 113 -71 11 7 19 1 30 -23
            8 -18 25 -36 37 -42 12 -5 26 -19 32 -32 6 -12 31 -32 56 -43 25 -12 49 -27
            52 -35 3 -8 12 -15 19 -15 8 0 25 -7 38 -15 13 -9 28 -15 32 -14 21 6 166 -25
            170 -36 3 -6 -2 -24 -10 -40 -10 -19 -12 -33 -6 -40 17 -21 24 -153 10 -180
            -17 -32 -6 -43 20 -20 19 17 20 17 31 -11 6 -16 8 -50 4 -76 -6 -51 6 -64 30
            -31 8 11 17 13 26 7 8 -5 22 -7 32 -6 12 2 22 -8 32 -31 8 -19 23 -37 35 -40
            12 -3 21 -14 21 -29 1 -12 2 -33 3 -46 1 -13 11 -28 25 -35 31 -16 56 -89 41
            -117 -8 -15 -8 -30 1 -54 17 -47 -3 -95 -42 -103 -32 -6 -44 -27 -24 -43 11
            -9 18 -7 34 9 12 12 28 21 36 21 16 0 20 -20 6 -36 -12 -14 -22 -72 -12 -78 5
            -3 11 -33 15 -67 4 -34 13 -70 19 -80 9 -15 9 -23 0 -39 -10 -15 -10 -21 1
            -27 8 -5 16 -35 20 -73 3 -36 8 -76 9 -90 2 -14 0 -35 -5 -47 -6 -20 -4 -23
            18 -23 19 0 28 -8 39 -34 8 -18 23 -36 33 -38 22 -6 50 -115 37 -145 -5 -10
            -7 -22 -5 -28 1 -5 2 -23 1 -38 -1 -24 2 -28 19 -22 28 9 27 -28 -1 -56 -22
            -22 -19 -49 5 -49 19 0 28 -76 24 -185 -3 -74 -5 -80 -25 -83 -17 -2 -23 -10
            -23 -27 0 -13 5 -25 11 -27 15 -5 -21 -65 -46 -77 -17 -8 -18 -10 -2 -10 22
            -1 22 -4 -5 -34 -17 -19 -22 -39 -24 -96 -2 -39 -6 -81 -9 -92 -6 -19 -8 -19
            -24 -5 -10 9 -21 13 -24 9 -12 -12 -7 -40 9 -54 14 -12 14 -14 -1 -25 -10 -7
            -14 -18 -9 -25 5 -9 10 -7 20 5 19 27 34 10 34 -39 0 -32 -7 -51 -25 -73 -14
            -17 -25 -38 -25 -48 0 -29 -17 -49 -42 -49 -17 0 -22 -5 -20 -20 2 -11 5 -45
            6 -75 1 -30 5 -61 10 -68 5 -8 4 -23 -2 -35 -6 -12 -13 -39 -17 -60 -5 -34 -9
            -38 -33 -35 -20 2 -28 -2 -30 -16 -2 -10 3 -23 12 -28 18 -10 22 -38 5 -38 -8
            0 -10 -16 -6 -52 4 -29 2 -59 -2 -67 -11 -17 -3 -43 10 -35 5 3 9 14 9 25 0
            12 5 19 13 17 16 -6 23 -98 7 -98 -6 0 -18 -7 -26 -15 -11 -11 -20 -12 -34 -5
            -40 21 -50 13 -44 -34 8 -55 -9 -90 -38 -80 -19 6 -20 3 -13 -34 4 -23 2 -43
            -3 -46 -6 -3 -10 -22 -10 -41 0 -26 -7 -43 -27 -61 -16 -15 -25 -31 -21 -40 7
            -19 -10 -54 -36 -75 -17 -13 -20 -31 -24 -117 -4 -93 -2 -102 14 -102 23 0 42
            -19 42 -43 0 -14 5 -17 16 -13 22 8 44 -11 44 -39 0 -12 12 -34 26 -48 45 -46
            28 -55 -109 -58 -38 -1 -39 -1 -33 -33 5 -26 2 -37 -15 -52 -12 -10 -32 -38
            -46 -61 -14 -24 -29 -43 -34 -43 -11 0 -12 -2 -35 -84 -16 -59 -17 -59 -33
            -37 -23 30 -30 18 -24 -42 2 -29 0 -70 -4 -92 -8 -33 -13 -40 -32 -37 -20 2
            -22 -1 -16 -28 6 -28 -9 -93 -27 -114 -5 -6 -13 -2 -21 8 -12 16 -15 3 -20
            -100 -6 -102 -10 -121 -27 -136 -24 -19 -26 -38 -5 -38 8 0 15 -4 15 -10 0
            -11 -34 -15 -92 -11 -22 1 -50 -5 -68 -16 -27 -16 -32 -16 -41 -3 -5 8 -7 24
            -3 35 16 56 16 62 -5 68 -22 5 -25 27 -14 89 6 38 23 35 23 -3 0 -20 4 -29 12
            -27 15 5 12 156 -4 176 -7 8 -7 16 -1 25 6 6 11 35 11 62 0 28 5 63 11 78 9
            23 15 26 36 21 19 -5 25 -2 25 9 0 9 -5 19 -10 22 -8 5 -8 11 0 20 6 7 8 25 4
            39 -6 24 -4 26 30 26 33 0 36 2 36 29 0 25 4 30 28 33 21 2 27 8 25 25 -2 18
            4 24 30 31 25 7 31 13 29 30 -3 18 3 23 27 28 23 5 31 12 33 33 2 20 9 27 30
            29 21 2 28 9 30 30 2 18 10 28 28 32 14 3 26 14 29 25 6 33 21 45 48 39 22 -6
            24 -4 21 22 -3 28 -5 29 -60 32 l-58 3 0 -30 c0 -25 -4 -30 -27 -33 -22 -2
            -29 -9 -31 -30 -3 -21 -9 -27 -30 -30 -21 -2 -28 -9 -30 -30 -3 -21 -9 -27
            -30 -30 -21 -2 -28 -9 -30 -30 -3 -21 -9 -27 -30 -30 -19 -2 -28 -10 -30 -26
            -2 -12 -16 -29 -33 -37 -16 -9 -29 -22 -29 -31 0 -8 -11 -19 -24 -24 -13 -5
            -28 -22 -34 -40 -9 -25 -16 -31 -34 -28 -20 3 -23 -1 -23 -35 0 -21 -5 -41
            -11 -45 -6 -4 -14 -23 -18 -43 -3 -20 -18 -49 -31 -63 -22 -24 -23 -29 -11
            -42 11 -11 14 -31 9 -87 -5 -69 -20 -107 -30 -79 -6 16 -33 16 -33 0 1 -35 14
            -58 34 -59 15 -1 16 -3 5 -6 -20 -5 -33 -110 -16 -131 8 -10 7 -20 -2 -35 -12
            -19 -11 -23 15 -44 23 -18 26 -25 16 -35 -9 -9 -15 -9 -24 0 -7 7 -16 8 -22 3
            -6 -5 -49 -11 -96 -13 -78 -4 -85 -6 -83 -25 3 -26 -57 -56 -93 -47 -19 5 -26
            2 -30 -12 -6 -23 -57 -54 -89 -54 -14 0 -26 -7 -30 -19 -6 -20 -85 -48 -103
            -37 -6 3 -12 -3 -14 -15 -2 -17 -16 -26 -57 -40 -29 -9 -57 -23 -62 -31 -28
            -45 -77 -99 -96 -104 -12 -3 -24 -12 -27 -20 -3 -8 -15 -14 -27 -14 -12 0 -47
            -14 -77 -31 -36 -20 -75 -33 -111 -36 -31 -3 -61 -10 -68 -15 -6 -5 -22 -6
            -35 -3 -19 5 -27 1 -35 -17 -16 -35 -122 -64 -138 -38 -11 18 -45 11 -45 -9 0
            -22 -10 -31 -60 -48 -26 -9 -37 -9 -48 0 -11 9 -24 0 -66 -43 -28 -30 -66 -65
            -83 -77 -18 -12 -65 -57 -105 -100 -181 -193 -196 -204 -223 -166 -11 14 -13
            13 -18 -9 -6 -21 -15 -27 -50 -32 -24 -4 -52 -4 -62 0 -13 5 -16 4 -11 -4 4
            -8 -3 -16 -19 -22 -32 -12 -115 -13 -115 -2 0 15 -54 34 -106 37 -29 2 -63 11
            -77 20 -14 9 -35 15 -45 13 -11 -2 -29 6 -41 16 -17 15 -26 17 -44 9 -17 -8
            -29 -8 -43 0 -22 13 -294 15 -389 4 -33 -4 -73 -8 -90 -10 -16 -2 -41 -10 -55
            -19 -14 -8 -36 -18 -50 -22 -14 -3 -47 -23 -75 -43 -38 -28 -61 -37 -100 -40
            -77 -7 -155 6 -162 25 -4 9 -17 30 -30 45 -13 16 -23 37 -23 48 0 10 -6 19
            -13 19 -15 0 -67 54 -67 70 0 16 -30 39 -49 40 -8 0 -29 15 -46 33 -39 40
            -118 97 -134 97 -15 0 -61 48 -71 76 -11 28 -60 41 -72 20 -5 -9 -18 -16 -28
            -16 -24 0 -27 32 -5 50 21 17 19 30 -5 30 -13 0 -24 -10 -30 -25 -9 -23 -12
            -24 -37 -13 -42 18 -52 28 -46 45 5 13 1 15 -25 10 -27 -6 -80 9 -111 30 -3 2
            4 10 15 18 10 8 15 15 9 15 -5 1 -48 2 -95 3 -83 2 -85 1 -88 -22 -4 -29 12
            -41 56 -41 31 0 42 -12 22 -25 -21 -13 2 -25 48 -26 60 -1 101 -12 84 -23 -17
            -10 -15 -36 3 -36 8 0 24 5 34 12 14 9 23 8 42 -5 13 -10 35 -17 50 -17 18 0
            29 -8 37 -25 8 -18 19 -25 39 -25 19 0 39 -12 62 -35 19 -19 37 -35 42 -35 4
            0 11 -9 14 -20 4 -11 15 -20 27 -20 11 0 35 -16 52 -35 18 -19 38 -35 44 -35
            6 0 18 -12 26 -28 8 -15 23 -36 35 -46 12 -11 21 -30 21 -43 0 -13 7 -26 15
            -29 10 -4 15 -20 15 -49 0 -40 -3 -45 -45 -69 -25 -15 -45 -33 -45 -41 0 -10
            -10 -15 -27 -15 -25 1 -26 2 -10 14 21 16 23 46 2 46 -8 0 -24 13 -37 30 -12
            17 -26 30 -31 30 -4 0 -27 13 -51 29 -23 16 -60 34 -82 40 -22 6 -48 17 -59
            25 -11 9 -27 16 -35 16 -8 0 -42 14 -74 30 -32 17 -73 30 -91 30 -24 0 -42 10
            -71 38 -34 33 -44 38 -74 35 -41 -5 -120 25 -120 44 0 13 -30 18 -79 15 -23
            -1 -124 29 -159 48 -18 9 -196 32 -271 34 -48 2 -66 20 -29 29 19 5 20 9 10
            19 -11 11 -16 10 -25 -3 -23 -30 -52 -40 -73 -24 -25 19 -44 19 -44 0 0 -10
            -11 -15 -35 -15 -45 0 -76 -40 -56 -72 18 -29 9 -30 -24 -4 -26 21 -30 30 -28
            70 1 42 -1 46 -22 46 -29 0 -39 13 -55 74 -8 27 -28 71 -47 99 -18 27 -33 55
            -33 62 0 9 19 16 55 20 30 4 58 11 61 16 3 5 12 9 21 9 9 0 24 7 33 15 12 11
            51 15 167 18 159 3 163 2 130 -41 -8 -10 -7 -16 4 -23 22 -13 26 -11 45 20 10
            18 29 31 46 35 25 5 29 10 26 32 -3 25 -7 27 -58 30 -33 3 -75 14 -107 30 -34
            18 -58 24 -70 19 -10 -4 -52 -10 -93 -12 -41 -2 -113 -8 -160 -14 -190 -24
            -184 -24 -227 9 -54 43 -180 109 -265 138 -52 19 -87 25 -128 22 -53 -3 -55
            -2 -58 24 -2 14 -10 32 -18 38 -8 7 -14 17 -14 22 0 5 -12 24 -27 41 -16 16
            -44 48 -63 70 -90 101 -214 208 -257 221 -39 12 -47 32 -28 72 11 25 15 49 11
            77 -29 214 -34 232 -88 287 -28 28 -105 125 -128 160 -8 12 -20 28 -25 34 -6
            6 -34 47 -63 91 -28 44 -56 85 -62 92 -5 7 -10 17 -10 22 0 5 -6 16 -13 23 -7
            7 -18 24 -25 38 -7 14 -26 48 -42 75 -33 54 -110 208 -110 219 0 3 -10 23 -23
            44 -12 20 -38 75 -56 122 -19 47 -42 103 -51 125 -10 22 -32 81 -50 130 -18
            50 -39 104 -46 122 -8 17 -14 34 -14 38 0 8 -56 78 -95 121 -11 12 -39 32 -62
            43 l-41 22 21 42 c11 23 24 76 29 117 4 41 11 100 14 130 9 71 8 278 -1 355
            -10 86 -7 222 7 266 8 29 8 45 -1 66 -6 16 -11 49 -11 73 1 60 -14 158 -29
            195 -39 89 -56 119 -88 150 -38 37 -61 43 -81 23 -9 -9 -12 -8 -12 8 0 23 26
            47 87 80 52 27 83 59 83 86 0 13 7 18 29 18 56 0 149 -139 193 -290 40 -133
            48 -169 48 -206 0 -21 5 -57 11 -79 5 -22 10 -115 10 -207 0 -106 4 -170 10
            -174 33 -20 47 59 56 311 5 165 -8 298 -42 406 -8 26 -15 57 -15 70 -1 13 -7
            35 -15 49 -8 14 -14 35 -15 46 0 12 -7 27 -15 34 -8 7 -15 23 -15 35 0 12 -7
            28 -15 35 -8 7 -15 20 -15 29 0 9 -12 27 -25 40 -31 29 -31 39 -2 82 18 28 23
            50 25 132 2 54 10 116 18 139 8 22 14 55 14 72 1 17 7 42 15 56 8 14 15 36 15
            50 0 19 18 38 75 79 45 33 75 62 75 73 0 9 7 34 16 55 9 21 22 52 29 68 27 66
            105 230 125 265 5 8 11 22 14 30 3 8 10 23 16 33 5 9 15 25 20 35 6 9 14 26
            19 37 5 11 21 37 35 58 14 21 26 41 26 44 0 3 13 27 28 52 34 55 44 140 32
            271 -9 94 -10 88 45 156 87 106 140 154 173 154 17 0 33 4 37 9 3 5 20 13 38
            17 17 3 47 19 65 35 18 16 40 29 50 29 9 0 26 7 36 15 11 8 27 15 36 15 9 0
            68 51 131 113 63 61 153 145 199 186 47 40 96 83 110 95 14 12 54 44 90 71 36
            27 67 52 70 55 3 3 17 13 33 23 23 15 27 24 27 65 l1 47 111 83 112 82 85 0
            c91 0 138 12 217 56 51 28 104 72 104 86 0 18 45 69 78 88 l33 20 47 -32 c26
            -18 49 -35 52 -38 3 -3 23 -13 45 -21 22 -9 56 -22 75 -30 69 -27 469 -12 489
            19 3 5 19 12 34 16 20 5 27 12 25 24 -4 23 -53 28 -84 7 -32 -20 -265 -32
            -339 -17 -135 29 -187 50 -222 91 -26 31 -28 44 -8 61 11 9 15 32 15 77 0 73
            1 73 77 42 26 -11 42 -11 85 0 29 7 85 16 123 20 39 3 80 12 92 19 12 6 36 12
            53 12 17 0 47 7 67 15 19 8 45 15 57 15 12 0 31 7 42 15 10 8 27 15 36 15 27
            0 137 54 193 95 56 40 63 41 72 19z m184 -156 c44 -23 79 -45 79 -48 0 -17
            -40 -38 -92 -49 -49 -10 -61 -10 -87 4 -26 13 -31 21 -31 53 0 38 22 82 42 82
            6 0 46 -19 89 -42z m3299 -698 c-2 -8 -4 -38 -3 -67 3 -59 28 -112 82 -175 52
            -60 131 -165 131 -174 0 -4 12 -23 27 -42 14 -19 32 -51 39 -71 8 -23 18 -35
            28 -33 14 2 108 -88 142 -137 8 -11 24 -21 34 -21 10 0 32 -11 48 -25 17 -14
            36 -25 43 -25 16 0 49 -30 49 -44 0 -6 14 -17 31 -25 18 -8 34 -22 36 -31 3
            -10 12 -21 21 -24 19 -6 54 -27 62 -37 3 -3 20 -14 38 -23 22 -11 32 -24 32
            -40 0 -32 10 -39 31 -20 11 10 25 13 38 9 22 -7 22 -27 -1 -87 -6 -17 -6 -33
            0 -45 10 -19 9 -89 -2 -100 -10 -10 -7 -51 5 -59 6 -3 15 0 20 7 4 7 11 11 14
            7 3 -3 -4 -28 -17 -54 -27 -56 -62 -70 -95 -36 -16 17 -51 28 -145 47 -18 3
            -28 12 -30 27 -2 14 -12 24 -28 28 -18 4 -26 13 -28 33 -2 20 -10 29 -30 33
            -50 11 -111 45 -117 65 -4 10 -14 19 -24 19 -10 0 -24 7 -31 15 -7 8 -18 15
            -26 15 -15 0 -94 81 -108 111 -6 11 -27 30 -49 41 -48 24 -214 188 -288 283
            -30 39 -57 71 -61 73 -9 4 -168 267 -168 278 0 4 -6 15 -13 23 -7 9 -21 36
            -31 61 -26 64 -46 110 -62 143 -13 27 -19 77 -9 77 2 0 30 -7 62 -16 32 -9 63
            -15 68 -15 93 9 180 23 189 30 13 11 53 19 81 17 13 -1 18 -7 15 -16z m360
            -339 c0 -3 36 -38 81 -76 79 -68 194 -206 187 -225 -8 -23 -96 36 -182 123
            -93 95 -133 154 -123 181 6 15 37 12 37 -3z m-7624 -2937 c15 -51 19 -154 16
            -421 -1 -134 -6 -213 -12 -213 -5 0 -10 9 -10 21 0 11 -6 41 -14 67 -34 113
            -51 238 -51 387 0 129 3 155 18 179 23 35 39 29 53 -20z m8624 -1244 c-17
            -120 -45 -182 -63 -137 -8 21 13 120 29 138 8 8 14 27 14 41 0 28 10 42 21 31
            5 -5 4 -37 -1 -73z m-421 -1458 c-10 -31 -27 -72 -36 -89 -42 -79 -45 -3 -4
            78 38 76 41 80 51 74 5 -3 0 -31 -11 -63z m-76 -167 c-5 -13 -23 -22 -23 -11
            0 15 14 35 21 31 4 -3 6 -12 2 -20z m-468 -165 c0 -13 -5 -25 -11 -27 -13 -4
            -26 35 -18 49 10 16 29 2 29 -22z m-4045 -1029 c0 -14 -18 -23 -30 -16 -6 4
            -8 11 -5 16 8 12 35 12 35 0z m-825 -217 c187 -48 299 -87 419 -144 45 -21 97
            -43 116 -49 52 -17 109 -45 110 -53 0 -5 -9 -8 -21 -8 -17 0 -143 27 -209 45
            -18 5 -182 62 -300 105 -47 17 -98 35 -115 39 -54 15 -110 46 -113 63 -3 16 3
            17 45 12 26 -3 57 -8 68 -10z m909 -353 c3 -5 -1 -11 -9 -15 -15 -6 -29 7 -18
            18 9 9 21 8 27 -3z"/>
            <path d="M5160 8468 c-89 -11 -163 -25 -195 -38 -43 -16 -95 -70 -95 -97 0
            -24 -15 -31 -23 -10 -4 9 -7 9 -18 -1 -12 -11 -9 -18 19 -40 18 -15 32 -36 32
            -48 0 -22 77 -110 123 -139 15 -9 27 -24 27 -31 0 -8 10 -14 25 -14 14 0 25
            -4 25 -10 0 -5 9 -10 20 -10 11 0 23 -7 26 -15 4 -8 14 -15 23 -15 32 -1 126
            -39 129 -52 2 -12 144 -39 206 -38 11 0 28 -7 37 -16 21 -19 75 -23 362 -27
            151 -2 184 0 170 10 -20 15 -20 15 34 42 61 30 113 86 113 119 0 37 -28 90
            -76 142 -48 52 -138 120 -159 120 -9 0 -29 10 -45 21 -25 19 -154 70 -215 86
            -11 2 -29 8 -40 13 -11 5 -38 11 -60 14 -22 2 -67 10 -100 16 -117 23 -253 30
            -345 18z m295 -129 c217 -37 399 -102 498 -178 71 -54 82 -69 74 -104 -12 -46
            -77 -68 -203 -68 -178 0 -451 49 -571 102 -110 49 -139 66 -185 110 -65 61
            -66 92 -4 120 84 37 239 44 391 18z"/>
            <path d="M5070 8002 c0 -25 11 -34 28 -23 9 5 7 12 -8 26 -19 18 -20 18 -20
            -3z"/>
            <path d="M1866 7325 c-11 -8 -30 -15 -42 -15 -12 0 -27 -7 -34 -15 -7 -8 -17
            -15 -22 -15 -6 0 -41 -27 -78 -60 -37 -33 -72 -60 -76 -60 -19 0 -191 -216
            -217 -270 -4 -8 -21 -37 -37 -65 -16 -27 -35 -61 -41 -75 -6 -14 -16 -33 -21
            -44 -12 -23 -30 -112 -29 -146 0 -30 5 -63 15 -113 8 -35 10 -37 25 -22 10 8
            30 15 46 15 16 0 36 6 44 14 27 23 129 76 147 76 25 0 98 37 119 60 10 11 25
            20 34 20 9 1 29 21 44 45 31 49 48 58 44 23 -1 -14 4 -23 16 -26 12 -2 17 3
            17 20 0 13 -5 29 -11 35 -8 8 -6 18 6 37 10 14 21 26 26 26 5 0 9 6 9 13 0 7
            14 26 30 42 17 16 30 36 30 45 0 9 13 29 30 45 16 15 32 41 36 57 3 17 14 38
            24 48 9 9 20 40 24 68 3 28 16 77 27 109 32 92 35 107 16 100 -11 -4 -26 3
            -41 18 -21 21 -35 25 -83 25 -35 -1 -66 -6 -77 -15z m32 -179 c4 -35 -37 -136
            -91 -225 -79 -130 -172 -218 -284 -267 -102 -45 -120 -27 -77 73 41 98 118
            206 214 304 138 140 230 185 238 115z"/>
            <path d="M1901 6805 c-13 -14 -21 -28 -18 -32 10 -9 79 27 74 40 -7 21 -31 18
            -56 -8z"/>
            <path d="M5079 6678 c-19 -23 -46 -54 -61 -68 -32 -28 -37 -77 -13 -124 8 -15
            15 -38 15 -50 0 -12 8 -29 18 -37 9 -9 24 -26 32 -39 27 -41 91 -100 109 -100
            9 0 26 -7 37 -15 36 -27 76 -18 112 27 18 22 35 52 37 67 3 14 10 39 15 56 9
            25 7 32 -12 46 l-21 17 21 11 c12 6 22 17 22 23 0 6 7 19 16 29 9 10 14 25 11
            34 -9 22 -27 19 -27 -5 0 -20 -28 -28 -43 -13 -9 9 22 43 40 43 17 0 17 31 -1
            56 -12 16 -15 16 -19 4 -17 -53 -17 -53 -32 -40 -10 9 -12 18 -4 37 12 31 -4
            54 -23 35 -18 -18 -26 -15 -30 11 -3 19 -10 22 -48 24 -25 1 -61 5 -81 8 -33
            6 -38 4 -70 -37z m106 -18 c3 -5 14 -10 25 -10 27 0 60 -71 60 -129 0 -63 -20
            -158 -35 -171 -7 -6 -27 -15 -45 -20 -25 -7 -34 -5 -46 8 -57 64 -75 92 -80
            125 -4 20 -11 40 -15 43 -5 3 -9 20 -9 37 0 24 10 42 40 71 22 21 40 43 40 47
            0 12 57 11 65 -1z"/>
            <path d="M4220 6649 c-30 -5 -93 -11 -139 -14 -51 -3 -90 -10 -100 -18 -9 -8
            -46 -28 -83 -46 -38 -17 -68 -36 -68 -43 0 -22 -72 -79 -92 -72 -10 3 -18 1
            -18 -5 0 -6 5 -11 10 -11 13 0 13 -47 -1 -55 -6 -4 -16 1 -23 11 -8 10 -15 13
            -19 7 -4 -6 0 -16 8 -23 15 -13 5 -48 -24 -83 -12 -14 -13 -22 -4 -36 6 -10 8
            -24 3 -31 -5 -8 -4 -22 1 -31 15 -29 11 -139 -5 -139 -8 0 -17 7 -20 16 -3 8
            -10 12 -16 9 -15 -10 -12 -35 5 -35 8 0 15 -8 15 -18 0 -10 14 -31 30 -47 38
            -37 41 -69 5 -63 -30 6 -46 -11 -17 -19 24 -6 35 -39 22 -64 -13 -23 -3 -47
            20 -54 11 -3 22 -16 26 -28 3 -12 14 -31 23 -41 12 -14 13 -20 4 -23 -18 -6
            -16 -28 2 -43 11 -9 19 -9 28 -2 19 16 129 -17 135 -40 3 -14 15 -18 51 -19
            69 -3 115 2 127 12 7 6 16 4 24 -6 19 -23 49 -18 60 9 9 26 20 31 87 41 22 4
            65 20 95 36 29 16 60 31 68 35 8 3 22 10 30 15 8 5 31 16 50 24 20 8 40 25 45
            37 6 13 19 27 31 33 11 6 19 15 17 21 -2 7 3 19 12 27 8 9 15 22 15 30 0 8 7
            20 15 27 8 7 15 23 15 37 0 13 7 40 15 60 8 19 15 43 15 53 0 10 6 23 14 29 8
            7 12 21 9 31 -3 11 0 26 6 34 15 18 5 84 -17 109 -14 15 -13 19 3 37 17 19 17
            20 -7 29 -28 11 -38 29 -38 72 0 34 14 38 30 9 6 -11 15 -20 20 -20 17 0 10
            34 -11 60 -21 24 -21 24 -36 5 -14 -20 -15 -19 -35 8 -11 16 -43 52 -71 80
            l-51 52 32 3 c20 2 32 9 32 18 0 19 -34 18 -75 -2 -31 -14 -36 -14 -77 4 -29
            14 -47 17 -55 11 -8 -7 -25 -7 -50 0 -21 6 -40 10 -43 10 -3 -1 -30 -5 -60
            -10z m220 -150 c72 -38 112 -94 149 -208 26 -79 6 -202 -50 -312 -47 -93 -112
            -146 -234 -191 -152 -56 -172 -61 -255 -62 -75 -1 -90 2 -130 26 -53 31 -85
            64 -94 98 -16 56 -28 151 -33 257 -4 97 -2 122 16 176 27 81 75 137 157 183
            58 32 75 37 176 46 62 5 114 11 116 13 10 10 151 -10 182 -26z"/>
            <path d="M3631 6206 c-11 -13 -11 -20 -3 -28 8 -8 13 -7 18 5 10 27 0 41 -15
            23z"/>
            <path d="M7585 6161 c-3 -2 -5 -69 -5 -147 0 -133 -1 -144 -20 -154 -15 -8
            -19 -17 -14 -34 3 -14 -3 -37 -16 -59 -24 -40 -30 -43 -47 -26 -7 7 -13 7 -17
            1 -3 -6 -2 -13 4 -17 20 -12 9 -33 -20 -39 -19 -3 -34 -15 -41 -30 -15 -31
            -51 -47 -91 -40 -32 6 -32 6 -13 -10 20 -16 20 -17 -2 -32 -25 -18 -30 -53
            -11 -72 10 -10 10 -15 -1 -21 -7 -5 -10 -14 -6 -21 5 -8 12 -7 26 6 18 16 20
            15 44 -37 l25 -54 -23 -17 c-21 -17 -22 -17 -3 -31 17 -13 18 -18 7 -62 -8
            -34 -9 -51 -2 -58 6 -6 11 -19 11 -29 0 -10 4 -18 8 -18 9 0 72 -83 72 -94 0
            -3 -10 -5 -22 -3 -14 1 -23 -4 -26 -15 -2 -13 3 -18 20 -18 13 0 29 5 34 10
            16 16 61 -8 68 -35 7 -26 39 -35 123 -35 53 0 54 0 51 28 -2 22 -9 28 -32 30
            -33 4 -71 26 -103 61 -29 31 -66 108 -58 121 10 16 45 11 52 -7 9 -24 64 -70
            115 -98 27 -14 44 -31 46 -44 3 -21 8 -22 80 -17 42 2 85 0 95 -6 10 -5 25 -7
            34 -4 12 5 13 9 3 22 -19 22 1 38 52 39 23 1 43 6 46 13 2 7 -1 12 -7 12 -6 0
            -11 5 -11 11 0 6 9 8 22 4 17 -6 20 -4 15 9 -9 24 10 67 33 73 14 4 22 20 31
            62 13 59 23 73 47 64 10 -5 13 -1 8 13 -3 10 -2 25 3 33 5 8 3 24 -7 41 -13
            23 -14 33 -5 52 6 12 14 59 18 103 6 80 16 105 41 105 8 0 14 5 14 10 0 6 -7
            10 -15 10 -8 0 -15 9 -15 19 0 10 7 21 15 25 20 7 20 62 -1 70 -8 3 -13 10
            -10 15 3 5 -5 16 -19 25 -14 9 -25 25 -25 36 0 11 -7 20 -16 20 -20 0 -47 65
            -38 93 9 29 7 33 -20 29 -13 -2 -31 4 -40 13 -14 15 -14 19 0 47 18 35 9 52
            -12 23 -13 -17 -16 -18 -24 -5 -5 8 -10 20 -10 27 0 17 -17 25 -40 18 -11 -4
            -20 -15 -20 -25 0 -25 -18 -36 -26 -16 -9 23 -21 19 -28 -9 -4 -14 -11 -25
            -16 -25 -20 0 -57 19 -88 46 -30 27 -39 29 -113 29 -44 1 -82 -1 -84 -4z m115
            -31 c0 -16 -20 -22 -50 -15 -38 8 -39 23 -2 27 32 4 52 -1 52 -12z m140 -136
            c120 -11 117 -10 164 -82 84 -128 83 -120 57 -289 -12 -81 -29 -174 -37 -206
            -33 -131 -105 -220 -187 -232 -50 -8 -78 -1 -200 49 -48 20 -96 36 -106 36
            -29 0 -40 21 -57 106 -31 161 -33 148 27 207 122 118 159 181 199 337 17 66
            37 93 63 86 12 -4 47 -9 77 -12z"/>
            <path d="M4760 6035 c0 -9 9 -15 25 -15 16 0 25 6 25 15 0 9 -9 15 -25 15 -16
            0 -25 -6 -25 -15z"/>
            <path d="M4667 5894 c-9 -10 2 -24 19 -24 8 0 14 7 14 15 0 15 -21 21 -33 9z"/>
            <path d="M2831 5561 c-39 -38 -51 -57 -51 -79 0 -16 -7 -35 -15 -42 -18 -15
            -19 -54 -4 -101 16 -48 18 -49 87 -55 60 -5 62 -4 62 18 1 22 1 22 15 4 12
            -16 17 -17 30 -6 9 8 13 21 10 34 -5 20 -5 20 11 -1 21 -29 35 -29 62 0 27 29
            28 44 2 52 -12 4 -20 15 -20 29 0 13 9 33 20 46 26 30 25 43 -5 95 -27 46 -45
            55 -112 55 -37 0 -48 -6 -92 -49z m157 -16 c26 -30 26 -29 5 -76 -16 -37 -23
            -42 -145 -97 -4 -2 -16 6 -28 18 -33 33 -20 90 33 140 52 49 101 54 135 15z"/>
            <path d="M800 5463 c0 -5 -23 -33 -50 -63 l-50 -55 0 -72 c0 -51 4 -76 15 -87
            8 -8 15 -18 15 -23 1 -12 112 -128 136 -141 41 -22 107 -40 121 -35 8 3 19 0
            24 -8 7 -11 11 -11 21 -1 10 10 10 15 -2 22 -8 5 -11 12 -7 17 5 4 12 1 17 -7
            8 -13 11 -13 22 -1 10 11 10 14 1 18 -15 6 -18 53 -3 53 6 0 10 -4 10 -10 0
            -5 5 -10 10 -10 6 0 10 13 10 29 0 21 6 30 21 34 18 5 19 10 13 44 -10 52 -31
            82 -53 76 -26 -7 -35 12 -15 31 20 20 30 20 38 0 5 -13 9 -14 21 -4 19 16 18
            110 -1 110 -8 0 -14 -9 -14 -20 0 -24 -34 -43 -60 -35 -24 8 -27 47 -5 65 8 7
            15 16 15 21 0 14 -38 11 -43 -3 -2 -8 -8 -9 -13 -4 -5 5 -4 11 4 13 23 9 12
            23 -18 23 -16 0 -55 7 -87 15 -63 17 -93 19 -93 8z m116 -71 c13 -9 26 -26 30
            -37 4 -11 11 -23 17 -27 12 -8 -6 -215 -20 -228 -4 -4 -26 -11 -48 -14 -40 -7
            -41 -6 -90 53 -43 52 -51 68 -57 118 -7 64 -7 64 41 123 32 38 38 41 70 35 19
            -4 45 -14 57 -23z m192 -229 c-5 -26 -38 -29 -38 -4 0 15 6 21 21 21 14 0 19
            -5 17 -17z"/>
            <path d="M8420 5345 c0 -9 5 -15 11 -13 6 2 11 8 11 13 0 5 -5 11 -11 13 -6 2
            -11 -4 -11 -13z"/>
            <path d="M8780 4984 c0 -17 22 -14 28 4 2 7 -3 12 -12 12 -9 0 -16 -7 -16 -16z"/>
            <path d="M2101 4813 c-22 -3 -35 -11 -38 -24 -4 -12 -14 -19 -30 -19 -24 0
            -102 -37 -114 -54 -4 -4 -21 -5 -39 -1 -29 6 -31 5 -25 -14 4 -15 1 -23 -11
            -28 -10 -4 -19 -2 -22 5 -2 7 -11 12 -20 12 -15 -1 -14 -3 2 -15 15 -11 17
            -18 8 -27 -8 -8 -15 -8 -28 3 -15 12 -16 12 -9 -10 6 -20 5 -23 -10 -17 -25 9
            -57 -22 -50 -48 3 -12 2 -15 -1 -8 -7 15 -30 16 -39 2 -4 -6 -1 -17 5 -25 10
            -12 9 -16 -4 -21 -9 -3 -16 -17 -16 -31 0 -17 -7 -27 -21 -30 -17 -5 -19 -11
            -14 -32 7 -23 8 -78 5 -143 -4 -62 33 -178 72 -228 11 -14 26 -38 32 -55 7
            -16 34 -53 60 -81 25 -29 46 -56 46 -60 0 -11 48 -34 70 -34 9 0 20 -3 24 -7
            4 -4 33 -8 64 -8 49 0 57 -3 54 -18 -3 -19 10 -22 39 -7 16 9 21 7 29 -15 11
            -29 25 -32 34 -8 4 10 1 20 -9 25 -8 5 -15 13 -15 18 0 14 91 40 116 34 19 -5
            24 -2 24 14 0 11 12 28 28 38 15 10 35 28 45 40 10 13 26 26 37 29 11 4 17 11
            14 17 -4 5 7 22 23 37 16 15 33 42 36 61 8 37 33 70 53 70 17 0 23 21 12 44
            -6 10 -8 32 -5 50 2 17 -6 66 -20 111 -13 44 -26 91 -28 105 -12 81 -29 133
            -50 156 -14 15 -25 33 -25 39 0 7 -11 23 -25 36 -15 15 -22 32 -20 44 3 11 -2
            29 -10 39 -13 17 -18 18 -39 7 -17 -10 -29 -10 -44 -2 -11 6 -32 11 -47 11
            -14 0 -28 7 -31 15 -4 8 -14 14 -23 13 -9 0 -31 -3 -50 -5z m226 -79 c-9 -9
            -28 6 -21 18 4 6 10 6 17 -1 6 -6 8 -13 4 -17z m-91 -96 c77 -59 145 -222 147
            -356 1 -68 -2 -85 -28 -137 -39 -77 -110 -149 -183 -183 -73 -34 -166 -36
            -230 -3 -71 36 -161 179 -183 291 -31 157 33 276 191 355 148 75 220 83 286
            33z"/>
            <path d="M8125 4780 c-11 -4 -37 -6 -57 -3 -29 4 -39 2 -44 -11 -3 -9 -16 -16
            -28 -17 -11 0 -15 -3 -8 -6 14 -6 16 -39 2 -48 -22 -14 -41 -65 -31 -84 8 -14
            7 -22 -3 -30 -9 -8 -12 -31 -9 -84 4 -78 4 -131 0 -161 -2 -16 5 -19 49 -21
            61 -2 76 -10 72 -38 -3 -18 2 -21 35 -22 30 -2 45 4 67 26 24 24 30 26 40 14
            17 -20 70 -46 81 -39 5 3 5 13 -1 23 -7 14 -5 23 10 36 10 9 23 14 29 11 6 -4
            9 5 8 21 -2 27 0 28 41 26 37 -2 42 1 42 19 0 36 -23 88 -42 94 -10 3 -20 20
            -24 42 -9 51 -20 68 -68 116 -23 23 -45 49 -49 58 -3 9 -22 20 -42 24 -42 7
            -50 17 -30 34 28 24 1 37 -40 20z m43 -195 c43 -36 76 -108 62 -134 -23 -44
            -81 -54 -124 -20 -23 18 -26 28 -26 78 0 58 19 101 45 101 7 0 27 -11 43 -25z
            m213 -178 c-13 -13 -26 -3 -16 12 3 6 11 8 17 5 6 -4 6 -10 -1 -17z"/>
            <path d="M8274 4723 c-13 -4 -7 -43 6 -43 12 0 22 32 13 40 -4 4 -13 6 -19 3z"/>
            <path d="M2380 4710 c0 -5 7 -10 15 -10 8 0 15 5 15 10 0 6 -7 10 -15 10 -8 0
            -15 -4 -15 -10z"/>
            <path d="M2530 4540 c0 -5 10 -15 22 -21 20 -11 20 -13 5 -24 -9 -7 -17 -23
            -17 -36 0 -13 -7 -33 -15 -43 -8 -11 -15 -28 -15 -38 0 -15 5 -17 28 -12 36 9
            35 7 37 65 1 27 7 55 13 61 7 7 12 22 12 35 0 20 -5 23 -35 23 -19 0 -35 -4
            -35 -10z"/>
            <path d="M5550 4238 c-19 -5 -53 -13 -75 -17 -22 -4 -51 -13 -65 -19 -14 -6
            -32 -13 -40 -16 -8 -4 -28 -15 -45 -26 -16 -11 -40 -24 -52 -29 -28 -13 -111
            -96 -124 -124 -5 -12 -18 -35 -29 -52 -11 -16 -22 -37 -26 -45 -3 -8 -13 -33
            -22 -55 -23 -54 -22 -332 2 -420 9 -32 16 -77 16 -100 0 -22 7 -53 15 -69 8
            -15 15 -34 15 -42 0 -23 94 -108 156 -140 45 -24 77 -33 139 -37 88 -8 210 3
            265 23 19 7 53 19 75 27 22 8 53 21 68 29 16 8 39 14 51 14 12 0 31 7 42 15
            10 8 27 15 36 15 40 0 165 112 191 170 4 8 16 29 27 45 11 17 22 37 26 45 3 8
            12 27 20 42 8 14 14 36 14 48 0 11 7 35 16 52 12 22 16 61 16 153 1 157 -26
            243 -109 358 -38 52 -142 137 -168 137 -9 0 -29 7 -46 15 -23 13 -63 15 -192
            14 -89 -1 -178 -6 -197 -11z m393 -143 c68 -32 120 -88 160 -172 24 -53 31
            -82 35 -157 6 -117 -9 -193 -56 -285 -77 -152 -149 -200 -433 -290 -67 -21
            -181 -30 -234 -19 -144 31 -190 85 -221 262 -48 276 -20 432 100 550 68 68
            143 102 273 126 151 28 299 22 376 -15z"/>
            <path d="M8247 4003 c-4 -3 -7 -18 -7 -33 0 -34 -8 -42 -31 -30 -22 12 -36 -5
            -20 -24 19 -22 -9 -91 -36 -91 -31 -1 -38 -12 -22 -31 12 -15 11 -16 -9 -10
            -16 5 -22 3 -22 -8 0 -8 -8 -20 -19 -25 -31 -17 -32 -58 -2 -94 14 -18 32 -37
            40 -43 8 -6 11 -16 7 -22 -14 -23 -46 -11 -83 30 -21 23 -52 56 -69 72 -16 17
            -33 39 -36 48 -4 9 -16 21 -26 27 -29 15 -41 -5 -33 -59 5 -36 10 -45 31 -50
            19 -4 26 -13 28 -37 3 -27 -2 -34 -27 -48 -32 -16 -40 -38 -20 -51 7 -4 16 1
            21 10 12 21 28 11 28 -18 0 -13 7 -29 15 -36 19 -15 19 -36 2 -43 -8 -3 -48
            -11 -90 -18 l-77 -13 -33 31 c-30 29 -37 31 -102 29 -55 -1 -70 -4 -70 -16 0
            -9 9 -15 22 -15 29 0 40 -13 17 -21 -10 -4 -29 -16 -41 -26 -21 -20 -21 -20
            -28 1 -3 12 -12 21 -20 21 -9 0 -12 -16 -11 -57 2 -55 3 -58 28 -61 30 -4 43
            -30 54 -104 5 -42 3 -50 -21 -73 -19 -20 -32 -26 -51 -21 -82 20 -74 25 -74
            -44 0 -60 -2 -64 -41 -102 -34 -33 -46 -39 -68 -33 -54 13 -66 11 -66 -11 0
            -11 -6 -28 -13 -37 -23 -27 -6 -55 36 -59 31 -2 37 -7 37 -25 0 -13 5 -23 10
            -23 6 0 10 8 10 18 0 31 18 31 57 0 41 -32 47 -48 23 -68 -8 -7 -15 -20 -15
            -30 0 -10 -7 -23 -15 -30 -19 -16 -19 -140 1 -140 7 0 15 4 18 9 3 4 28 6 56
            3 37 -3 55 0 68 11 23 21 114 16 165 -9 32 -15 43 -16 70 -6 19 7 45 12 59 12
            17 0 27 7 31 19 3 12 17 20 46 25 28 4 46 14 57 31 9 14 27 28 39 31 13 3 26
            16 29 28 3 12 16 28 30 34 13 6 27 20 31 31 3 12 10 21 14 21 5 0 21 18 36 40
            21 30 33 39 47 34 16 -5 18 -2 13 19 -4 14 -2 28 4 31 6 4 11 16 11 26 0 28
            19 35 36 14 14 -18 14 -17 12 11 -3 40 11 113 24 121 5 3 16 -2 24 -12 14 -17
            15 -15 10 28 -6 48 7 101 30 129 8 8 14 27 14 42 0 14 5 29 11 33 7 4 9 24 6
            52 -3 26 0 53 6 64 9 13 9 20 0 29 -7 7 -9 26 -6 47 5 31 2 38 -27 62 -28 23
            -33 34 -34 71 -1 35 -5 44 -21 47 -16 3 -18 1 -7 -9 15 -16 16 -39 2 -39 -6 0
            -33 17 -60 37 -55 41 -63 69 -35 123 12 23 22 30 46 30 27 0 30 2 23 23 -9 28
            -8 45 6 81 8 22 14 26 22 18 7 -7 18 -12 25 -12 17 0 17 27 1 33 -10 3 -10 9
            0 26 6 11 12 30 12 41 0 18 -7 20 -53 20 -30 0 -57 -3 -60 -7z m-35 -480 c63
            -65 83 -122 68 -203 -46 -256 -196 -497 -390 -628 -53 -35 -58 -37 -140 -37
            -131 0 -179 11 -192 43 -6 15 -23 56 -39 91 -34 79 -34 78 83 211 46 52 90
            111 98 130 8 19 15 67 15 105 l0 70 90 5 c58 3 101 11 121 22 41 22 113 104
            121 137 3 14 13 34 22 45 14 16 77 54 91 56 3 0 27 -21 52 -47z"/>
            <path d="M2430 3984 c0 -9 5 -14 12 -12 18 6 21 28 4 28 -9 0 -16 -7 -16 -16z"/>
            <path d="M2426 3926 c-10 -25 -22 -36 -46 -41 -25 -5 -31 -11 -28 -28 5 -33
            34 -32 53 1 16 27 78 62 110 62 16 0 21 16 8 23 -5 2 -25 7 -45 11 -36 6 -38
            5 -52 -28z"/>
            <path d="M2262 3753 c4 -20 27 -27 47 -14 19 12 4 31 -25 31 -19 0 -25 -5 -22
            -17z"/>
            <path d="M853 3726 c-47 -56 -65 -95 -58 -126 4 -16 11 -30 16 -30 5 0 9 -8 9
            -18 0 -39 134 -152 180 -152 4 0 26 19 48 41 39 41 45 68 30 128 -1 7 3 16 10
            18 6 3 12 0 12 -6 0 -6 7 -11 15 -11 14 0 14 3 0 30 -9 17 -20 30 -25 30 -14
            0 -13 33 1 47 15 15 1 36 -18 29 -8 -3 -26 3 -41 14 -18 13 -50 22 -92 26 -61
            5 -66 4 -87 -20z m93 -22 c70 -19 66 -224 -6 -224 -23 0 -64 47 -89 103 l-22
            48 38 39 c38 41 44 44 79 34z"/>
            <path d="M8257 3694 c-9 -10 4 -34 19 -34 8 0 14 9 14 20 0 19 -19 27 -33 14z"/>
            <path d="M926 3233 c-11 -11 -6 -23 9 -23 8 0 15 4 15 9 0 13 -16 22 -24 14z"/>
            <path d="M920 3159 c0 -6 8 -18 17 -24 17 -13 17 -14 0 -32 -9 -11 -17 -26
            -17 -34 0 -8 -7 -25 -16 -38 -14 -20 -16 -41 -11 -129 3 -58 11 -110 17 -116
            5 -5 10 -22 10 -37 0 -15 7 -32 15 -39 8 -7 15 -17 15 -24 0 -6 11 -33 24 -61
            13 -27 29 -61 35 -75 6 -14 15 -32 20 -40 5 -8 12 -22 15 -30 4 -8 15 -28 26
            -45 11 -16 25 -40 31 -52 7 -13 16 -23 21 -23 4 0 8 -5 8 -11 0 -39 216 -272
            277 -299 42 -18 133 -23 149 -7 4 4 -2 20 -13 36 -18 24 -20 34 -13 67 8 34 6
            41 -11 55 -16 12 -22 30 -25 72 -2 31 0 59 6 62 19 12 11 43 -13 49 -25 6 -57
            53 -57 84 0 11 -7 25 -15 32 -8 7 -15 19 -15 28 0 8 -6 20 -13 26 -7 6 -22 31
            -32 56 -11 25 -30 59 -42 76 -13 17 -23 36 -23 42 0 6 -9 16 -20 22 -11 6 -20
            19 -20 30 0 10 -17 33 -37 52 -21 18 -76 70 -123 115 -47 46 -95 90 -107 99
            -26 17 -29 35 -11 64 10 15 10 25 2 38 -13 20 -54 29 -54 11z m203 -423 c44
            -32 94 -108 164 -247 42 -84 63 -139 63 -162 l0 -35 -29 14 c-17 8 -52 45 -79
            82 -59 80 -168 291 -178 345 -6 33 -4 37 12 30 11 -4 32 -16 47 -27z"/>
            <path d="M1340 2765 c0 -8 7 -15 15 -15 8 0 15 7 15 15 0 8 -7 15 -15 15 -8 0
            -15 -7 -15 -15z"/>
            <path d="M1485 2440 c-6 -10 42 -46 51 -37 3 3 1 15 -6 26 -11 22 -35 28 -45
            11z"/>
            <path d="M3510 2190 c-50 -28 -190 -149 -190 -164 0 -8 -7 -19 -15 -26 -21
            -18 -20 -132 2 -194 10 -28 36 -67 60 -91 35 -35 53 -44 116 -59 84 -20 207
            -18 271 5 21 8 65 39 98 69 46 42 64 68 79 110 10 30 19 63 19 74 0 57 -103
            197 -190 257 -53 37 -58 38 -135 38 -60 0 -89 -5 -115 -19z m215 -154 c53 -44
            75 -82 75 -131 0 -80 -76 -135 -187 -135 -39 0 -86 6 -104 14 -129 54 -110
            197 36 276 60 32 121 24 180 -24z"/>
            <path d="M7088 2143 c-10 -2 -18 -11 -18 -18 0 -15 -42 -65 -55 -65 -4 0 -16
            -11 -27 -25 -11 -14 -28 -25 -39 -25 -11 0 -24 -10 -30 -22 -5 -13 -21 -41
            -34 -63 -38 -62 -32 -168 11 -187 14 -7 24 -21 26 -37 2 -21 9 -27 33 -29 48
            -5 60 -11 47 -24 -26 -26 -13 -36 46 -32 31 2 80 3 109 3 45 0 52 2 55 22 2
            12 12 27 23 33 27 15 35 27 35 56 0 14 7 38 15 53 10 20 12 35 5 53 -6 14 -10
            54 -10 89 0 35 -5 67 -10 70 -6 4 -8 21 -4 39 5 30 3 34 -20 40 -16 4 -28 16
            -32 30 -4 19 -14 25 -42 28 -21 3 -44 7 -52 10 -8 3 -23 4 -32 1z m51 -197 c6
            -7 13 -33 16 -57 10 -97 -41 -151 -107 -112 -42 24 -51 64 -26 115 29 60 89
            88 117 54z"/>
            <path d="M5518 1303 c-20 -3 -28 -10 -28 -24 0 -11 -8 -23 -17 -26 -10 -4 -22
            -12 -26 -20 -11 -18 -57 -17 -57 1 0 8 7 16 15 20 8 3 15 14 15 24 0 15 -9 18
            -55 18 -54 1 -55 1 -55 -28 0 -18 -6 -31 -17 -35 -10 -3 -25 -12 -33 -19 -8
            -7 -28 -14 -45 -16 -28 -3 -30 -6 -31 -46 0 -43 9 -62 21 -42 10 17 38 12 31
            -6 -3 -8 -1 -24 5 -35 8 -16 5 -28 -12 -55 -32 -52 -79 -66 -79 -23 0 10 -6
            19 -14 19 -8 0 -16 7 -20 15 -3 8 -14 15 -24 15 -27 0 -92 28 -92 40 0 18 -40
            32 -55 20 -22 -18 -7 -68 32 -107 38 -40 45 -83 13 -83 -11 0 -20 4 -20 10 0
            5 -13 23 -30 40 -23 24 -38 30 -70 30 -34 0 -42 -4 -50 -26 -15 -38 -3 -74 26
            -74 35 0 50 -33 54 -122 1 -10 5 -17 10 -15 4 1 8 -1 9 -6 1 -18 37 -68 53
            -73 9 -3 28 -18 42 -35 28 -33 63 -49 107 -49 16 0 29 -5 29 -12 0 -19 46 -38
            59 -25 7 7 24 6 54 -3 36 -10 52 -10 81 1 28 10 40 10 59 0 27 -14 118 -22
            132 -11 6 5 48 10 94 11 70 3 85 1 96 -14 18 -25 47 -11 43 22 -3 24 1 27 42
            33 87 14 112 21 117 34 2 7 24 22 46 33 54 27 157 118 157 140 0 9 -5 22 -10
            27 -7 7 -7 27 1 62 9 44 16 54 45 68 29 14 51 40 100 120 10 15 14 17 25 7 22
            -22 26 -15 27 47 0 33 -3 60 -7 60 -5 0 -22 -7 -37 -15 -16 -8 -36 -12 -45
            -10 -11 4 -18 -2 -22 -15 -3 -11 -13 -23 -24 -26 -10 -3 -26 -10 -35 -15 -23
            -12 -61 -12 -74 1 -7 7 -24 5 -51 -6 -49 -20 -93 -12 -93 15 0 10 6 24 14 30
            9 7 14 30 14 57 0 37 -3 45 -16 42 -11 -2 -16 -11 -14 -25 5 -38 -71 -60 -98
            -28 -10 12 -10 21 0 44 17 43 5 71 -31 71 -34 0 -38 -15 -7 -31 l21 -11 -23
            -18 c-19 -14 -22 -23 -16 -54 11 -57 -28 -42 -54 22 -8 20 -13 21 -31 11 -17
            -8 -20 -17 -15 -39 4 -23 1 -30 -15 -35 -31 -10 -69 46 -69 104 0 28 -17 52
            -34 50 -6 -1 -23 -4 -38 -6z m50 -195 c51 -29 64 -32 151 -33 93 -2 98 -3 168
            -43 40 -23 76 -42 81 -42 5 0 16 -8 26 -19 36 -40 -8 -165 -72 -204 -44 -27
            -156 -70 -227 -87 -73 -17 -394 -15 -472 3 -116 28 -193 91 -193 158 0 44 33
            61 103 53 51 -6 61 -4 96 19 48 32 95 98 110 154 14 51 35 61 155 71 10 1 44
            -12 74 -30z"/>
            <path d="M2788 883 c-22 -6 -25 -61 -4 -69 26 -10 56 15 56 46 0 31 -9 34 -52
            23z"/>
            <path d="M2717 644 c-14 -14 -6 -24 19 -24 16 0 24 5 22 13 -5 14 -31 21 -41
            11z"/>
            <path d="M6099 631 c-13 -11 -21 -23 -17 -27 5 -4 16 0 26 9 10 10 27 17 38
            17 16 0 17 2 4 10 -21 13 -24 13 -51 -9z"/>
            <path d="M6001 549 c-34 -34 -45 -72 -13 -48 25 20 62 61 62 71 0 16 -19 8
            -49 -23z"/>
            <path d="M5900 445 c0 -30 10 -32 32 -6 18 21 14 31 -14 31 -13 0 -18 -7 -18
            -25z"/>
            <path d="M5840 391 c0 -28 17 -35 29 -12 15 27 14 31 -9 31 -13 0 -20 -7 -20
            -19z"/>
            <path d="M4580 335 c0 -11 7 -15 23 -13 12 2 22 8 22 13 0 6 -10 11 -22 13
            -16 2 -23 -2 -23 -13z"/>
            <path d="M7945 7211 c-6 -11 9 -23 19 -14 9 9 7 23 -3 23 -6 0 -12 -4 -16 -9z"/>
        </g>
    </g>
</svg>
